<svg version="1.1" id="Layer_1" xmlns="http://www.w3.org/2000/svg" x="0" y="0" viewBox="0 0 560 560" xml:space="preserve"><style>.st1{fill:none;stroke:#000;stroke-width:20;stroke-linecap:round;stroke-miterlimit:10}</style><path d="M509.09 479.09c0 16.5-13.5 30-30 30H80.91c-16.5 0-30-13.5-30-30V80.91c0-16.5 13.5-30 30-30h398.18c16.5 0 30 13.5 30 30v398.18z" fill="#fff"/><path class="st1" d="M509.09 479.09c0 16.5-13.5 30-30 30H80.91c-16.5 0-30-13.5-30-30V80.91c0-16.5 13.5-30 30-30h398.18c16.5 0 30 13.5 30 30v398.18zM127.27 152.73L280 101.82M432.73 152.73L280 101.82M280 458.18l-152.73-50.91M432.73 407.27L280 458.18"/></svg>