<svg xmlns="http://www.w3.org/2000/svg" viewBox="0 0 560 560"><path d="M509.09 377.27c0 16.5-13.5 30-30 30H80.91c-16.5 0-30-13.5-30-30V182.73c0-16.5 13.5-30 30-30h398.18c16.5 0 30 13.5 30 30v194.54z" fill="#fff"/><path d="M509.09 377.27c0 16.5-13.5 30-30 30H80.91c-16.5 0-30-13.5-30-30V182.73c0-16.5 13.5-30 30-30h398.18c16.5 0 30 13.5 30 30v194.54zM127.27 50.91L280 101.82m152.73-50.91L280 101.82m0 356.36l-152.73 50.91m305.46 0L280 458.18" fill="none" stroke="#000" stroke-width="20" stroke-linecap="round" stroke-miterlimit="10"/></svg>