<?xml version="1.0" encoding="utf-8"?>
<!-- Generator: Adobe Illustrator 23.1.0, SVG Export Plug-In . SVG Version: 6.00 Build 0)  -->
<svg version="1.1" id="Layer_1" xmlns="http://www.w3.org/2000/svg" xmlns:xlink="http://www.w3.org/1999/xlink" x="0px" y="0px"
	 viewBox="0 0 560 560" style="enable-background:new 0 0 560 560;" xml:space="preserve">
<style type="text/css">
	.st0{fill:#FFFFFF;}
	.st1{fill:none;stroke:#000000;stroke-width:20;stroke-linecap:round;stroke-miterlimit:10;}
</style>
<g>
	<path class="st0" d="M509.09,479.09c0,16.5-13.5,30-30,30H80.91c-16.5,0-30-13.5-30-30V80.91c0-16.5,13.5-30,30-30h398.18
		c16.5,0,30,13.5,30,30V479.09z"/>
	<path class="st1" d="M509.09,479.09c0,16.5-13.5,30-30,30H80.91c-16.5,0-30-13.5-30-30V80.91c0-16.5,13.5-30,30-30h398.18
		c16.5,0,30,13.5,30,30V479.09z"/>
</g>
<line class="st1" x1="127.27" y1="152.73" x2="280" y2="101.82"/>
<line class="st1" x1="432.73" y1="152.73" x2="280" y2="101.82"/>
<line class="st1" x1="280" y1="458.18" x2="127.27" y2="407.27"/>
<line class="st1" x1="432.73" y1="407.27" x2="280" y2="458.18"/>
<g>
</g>
</svg>
